<svg aria-hidden="true" style="position: absolute; width: 0; height: 0; overflow: hidden;" version="1.1" xmlns="http://www.w3.org/2000/svg" xmlns:xlink="http://www.w3.org/1999/xlink">
<defs>
<symbol id="logo_big" viewBox="0 0 286 32">
<path fill="#e6533c" style="fill: var(--color1, #e6533c)" d="M80.941 13.714c1.040 0 1.882 0.843 1.882 1.882v0.807c0 1.040-0.843 1.882-1.882 1.882h-2.151c-1.039 0-1.882 0.843-1.882 1.882v5.378c0 1.040-0.843 1.882-1.882 1.882h-2.151c-1.040 0-1.882 0.843-1.882 1.882v0.807c0 1.040-0.843 1.882-1.882 1.882h-5.109c-1.040 0-1.882-0.843-1.882-1.882v-9.95c0-1.040-0.843-1.882-1.882-1.882h-37.647c-1.040 0-1.882 0.843-1.882 1.882v9.95c0 1.040-0.843 1.882-1.882 1.882h-5.109c-1.040 0-1.882-0.843-1.882-1.882v-0.807c0-1.040-0.843-1.882-1.882-1.882h-2.151c-1.040 0-1.882-0.843-1.882-1.882v-5.378c0-1.040-0.843-1.882-1.882-1.882h-2.151c-1.040 0-1.882-0.843-1.882-1.882v-0.807c0-1.040 0.843-1.882 1.882-1.882h2.151c1.040 0 1.882-0.843 1.882-1.882v-5.378c0-1.040 0.843-1.882 1.882-1.882h2.151c1.040 0 1.882-0.843 1.882-1.882v-0.807c0-1.040 0.843-1.882 1.882-1.882h5.109c1.040 0 1.882 0.843 1.882 1.882v9.95c0 1.040 0.843 1.882 1.882 1.882h37.647c1.040 0 1.882-0.843 1.882-1.882v-9.95c0-1.040 0.843-1.882 1.882-1.882h5.109c1.040 0 1.882 0.843 1.882 1.882v0.807c0 1.040 0.843 1.882 1.882 1.882h2.151c1.040 0 1.882 0.843 1.882 1.882v5.378c0 1.040 0.843 1.882 1.882 1.882h2.151z"></path>
<path fill="#efede8" style="fill: var(--color2, #efede8)" d="M97.882 29.873v-26.353h9.412c1.431 0 2.723 0.358 3.878 1.073 1.167 0.715 2.089 1.675 2.767 2.88s1.016 2.529 1.016 3.972c0 1.481-0.351 2.824-1.054 4.028-0.69 1.192-1.619 2.146-2.786 2.861-1.167 0.703-2.441 1.054-3.821 1.054h-4.819v10.485h-4.593zM102.475 14.795h4.329c0.653 0 1.249-0.163 1.788-0.489s0.966-0.765 1.28-1.318c0.326-0.552 0.489-1.167 0.489-1.845 0-0.69-0.163-1.311-0.489-1.864-0.314-0.552-0.74-0.991-1.28-1.318s-1.136-0.489-1.788-0.489h-4.329v7.322z"></path>
<path fill="#efede8" style="fill: var(--color2, #efede8)" d="M125.393 30.362c-1.732 0-3.313-0.446-4.744-1.336-1.418-0.891-2.554-2.083-3.407-3.576-0.841-1.506-1.261-3.169-1.261-4.988 0-1.38 0.245-2.667 0.734-3.859 0.489-1.205 1.161-2.259 2.014-3.162 0.866-0.916 1.87-1.631 3.012-2.146s2.359-0.772 3.652-0.772c1.732 0 3.307 0.445 4.725 1.336 1.431 0.891 2.566 2.089 3.407 3.595 0.853 1.506 1.28 3.175 1.28 5.007 0 1.368-0.245 2.648-0.734 3.84s-1.167 2.246-2.033 3.162c-0.853 0.904-1.851 1.613-2.993 2.127-1.129 0.514-2.347 0.772-3.652 0.772zM125.393 25.769c0.916 0 1.738-0.245 2.466-0.734s1.299-1.136 1.713-1.939c0.427-0.803 0.64-1.681 0.64-2.635 0-0.979-0.219-1.87-0.659-2.673-0.427-0.816-1.010-1.462-1.751-1.939-0.728-0.489-1.531-0.734-2.409-0.734-0.904 0-1.719 0.245-2.447 0.734s-1.305 1.142-1.732 1.958c-0.427 0.816-0.64 1.7-0.64 2.654 0 0.991 0.22 1.889 0.659 2.692s1.023 1.443 1.751 1.92c0.741 0.464 1.544 0.696 2.409 0.696z"></path>
<path fill="#efede8" style="fill: var(--color2, #efede8)" d="M146.566 29.873h-4.555l-6.287-18.824h4.499l4.085 12.179 4.066-12.179h4.536l4.066 12.179 4.085-12.179h4.499l-6.287 18.824h-4.555l-4.085-12.235-4.066 12.235z"></path>
<path fill="#efede8" style="fill: var(--color2, #efede8)" d="M175.907 30.362c-1.732 0-3.313-0.446-4.744-1.336-1.418-0.891-2.554-2.089-3.407-3.595-0.841-1.506-1.261-3.169-1.261-4.988 0-1.368 0.245-2.648 0.734-3.84 0.489-1.205 1.161-2.259 2.014-3.162 0.866-0.916 1.87-1.631 3.012-2.146s2.359-0.772 3.652-0.772c1.468 0 2.811 0.314 4.028 0.941 1.23 0.615 2.271 1.462 3.125 2.541s1.474 2.309 1.864 3.689c0.389 1.38 0.477 2.824 0.264 4.329h-13.76c0.176 0.703 0.464 1.336 0.866 1.901 0.401 0.552 0.91 0.998 1.525 1.336 0.615 0.326 1.311 0.496 2.089 0.508 0.803 0.013 1.531-0.176 2.184-0.565 0.665-0.401 1.217-0.941 1.656-1.619l4.687 1.092c-0.766 1.669-1.908 3.037-3.426 4.104-1.518 1.054-3.219 1.581-5.101 1.581zM171.277 18.579h9.261c-0.138-0.753-0.433-1.431-0.885-2.033-0.439-0.615-0.985-1.104-1.638-1.468s-1.355-0.546-2.108-0.546-1.449 0.182-2.089 0.546c-0.64 0.351-1.186 0.835-1.638 1.449-0.439 0.602-0.741 1.286-0.904 2.052z"></path>
<path fill="#efede8" style="fill: var(--color2, #efede8)" d="M188.269 29.873l-0.019-18.824h4.593l0.019 1.675c0.64-0.678 1.404-1.211 2.296-1.6 0.89-0.402 1.85-0.602 2.88-0.602 0.689 0 1.38 0.1 2.071 0.301l-1.807 4.631c-0.478-0.188-0.954-0.282-1.431-0.282-0.742 0-1.419 0.182-2.033 0.546-0.602 0.351-1.086 0.834-1.449 1.449-0.352 0.602-0.527 1.274-0.527 2.014v10.692h-4.593z"></path>
<path fill="#efede8" style="fill: var(--color2, #efede8)" d="M202.221 29.873v-26.353h9.412c1.431 0 2.722 0.358 3.878 1.073 1.167 0.715 2.089 1.675 2.767 2.88s1.016 2.529 1.016 3.972c0 1.481-0.352 2.824-1.054 4.028-0.691 1.192-1.619 2.146-2.786 2.861-1.167 0.703-2.441 1.054-3.821 1.054h-4.819v10.485h-4.593zM206.814 14.795h4.329c0.651 0 1.248-0.163 1.788-0.489 0.538-0.326 0.966-0.765 1.28-1.318 0.326-0.552 0.489-1.167 0.489-1.845 0-0.69-0.164-1.311-0.489-1.864-0.314-0.552-0.742-0.991-1.28-1.318-0.54-0.326-1.137-0.489-1.788-0.489h-4.329v7.322z"></path>
<path fill="#efede8" style="fill: var(--color2, #efede8)" d="M221.248 22.908v-11.859h4.593v10.654c0 0.74 0.181 1.418 0.546 2.033 0.363 0.602 0.847 1.086 1.449 1.449 0.614 0.351 1.286 0.527 2.014 0.527 0.753 0 1.431-0.176 2.033-0.527 0.6-0.364 1.084-0.847 1.449-1.449 0.363-0.615 0.546-1.293 0.546-2.033v-10.654h4.593l0.019 18.824h-4.595l-0.017-1.713c-0.653 0.678-1.425 1.217-2.315 1.619-0.892 0.389-1.845 0.584-2.861 0.584-1.368 0-2.618-0.333-3.748-0.998-1.128-0.678-2.031-1.575-2.709-2.692-0.666-1.129-0.998-2.384-0.998-3.765z"></path>
<path fill="#efede8" style="fill: var(--color2, #efede8)" d="M242.368 29.873v-28.235h4.593v28.235h-4.593z"></path>
<path fill="#efede8" style="fill: var(--color2, #efede8)" d="M257.039 30.212c-0.979-0.063-1.928-0.257-2.842-0.584-0.904-0.339-1.707-0.797-2.409-1.374-0.704-0.577-1.242-1.267-1.619-2.071l3.878-1.656c0.151 0.251 0.395 0.521 0.734 0.809 0.339 0.276 0.74 0.508 1.205 0.696 0.476 0.188 0.998 0.282 1.562 0.282 0.476 0 0.928-0.063 1.355-0.188 0.439-0.138 0.791-0.345 1.054-0.621 0.275-0.276 0.414-0.634 0.414-1.073 0-0.464-0.164-0.822-0.489-1.073-0.314-0.264-0.715-0.458-1.205-0.584-0.478-0.138-0.941-0.264-1.393-0.376-1.193-0.238-2.304-0.609-3.332-1.111-1.016-0.502-1.839-1.148-2.466-1.939-0.616-0.803-0.922-1.769-0.922-2.899 0-1.242 0.326-2.315 0.979-3.219 0.664-0.904 1.525-1.6 2.579-2.089 1.065-0.489 2.214-0.734 3.445-0.734 1.493 0 2.861 0.314 4.104 0.941 1.254 0.615 2.246 1.487 2.974 2.616l-3.633 2.146c-0.177-0.301-0.422-0.577-0.734-0.828-0.314-0.264-0.672-0.477-1.073-0.64-0.403-0.176-0.823-0.276-1.261-0.301-0.565-0.025-1.080 0.025-1.544 0.151-0.465 0.125-0.841 0.339-1.129 0.64-0.277 0.301-0.414 0.703-0.414 1.205 0 0.477 0.188 0.834 0.565 1.073 0.376 0.226 0.828 0.402 1.355 0.527 0.538 0.125 1.054 0.264 1.544 0.414 1.103 0.364 2.138 0.809 3.106 1.336 0.979 0.527 1.762 1.173 2.353 1.939 0.589 0.766 0.872 1.681 0.847 2.748 0 1.217-0.365 2.284-1.092 3.2-0.728 0.904-1.67 1.594-2.824 2.071-1.143 0.477-2.366 0.665-3.671 0.565z"></path>
<path fill="#efede8" style="fill: var(--color2, #efede8)" d="M275.834 30.362c-1.732 0-3.313-0.446-4.744-1.336-1.419-0.891-2.554-2.089-3.407-3.595-0.841-1.506-1.261-3.169-1.261-4.988 0-1.368 0.245-2.648 0.734-3.84 0.489-1.205 1.16-2.259 2.014-3.162 0.866-0.916 1.869-1.631 3.012-2.146 1.141-0.515 2.359-0.772 3.652-0.772 1.468 0 2.81 0.314 4.028 0.941 1.229 0.615 2.27 1.462 3.125 2.541 0.853 1.079 1.474 2.309 1.864 3.689 0.388 1.38 0.476 2.824 0.264 4.329h-13.76c0.175 0.703 0.463 1.336 0.866 1.901 0.401 0.552 0.909 0.998 1.525 1.336 0.614 0.326 1.31 0.496 2.089 0.508 0.802 0.013 1.53-0.176 2.184-0.565 0.664-0.401 1.216-0.941 1.656-1.619l4.687 1.092c-0.766 1.669-1.909 3.037-3.426 4.104-1.519 1.054-3.219 1.581-5.101 1.581zM271.204 18.579h9.261c-0.139-0.753-0.433-1.431-0.885-2.033-0.44-0.615-0.986-1.104-1.638-1.468-0.653-0.364-1.355-0.546-2.108-0.546s-1.449 0.182-2.089 0.546c-0.64 0.351-1.186 0.835-1.638 1.449-0.44 0.602-0.742 1.286-0.904 2.052z"></path>
</symbol>
<symbol id="logo_small" viewBox="0 0 310 32">
<path fill="#e6533c" style="fill: var(--color1, #e6533c)" d="M86.33 13.714c1.263 0 2.286 1.023 2.286 2.286s-1.023 2.286-2.286 2.286h-1.582c-1.359 0-2.462 1.102-2.462 2.462v4.22c0 1.359-1.102 2.462-2.462 2.462h-1.583c-1.262 0-2.286 1.023-2.286 2.286s-1.023 2.286-2.286 2.286h-4.747c-1.359 0-2.462-1.102-2.462-2.462v-8.791c0-1.359-1.102-2.462-2.462-2.462h-39.385c-1.359 0-2.462 1.102-2.462 2.462v8.791c0 1.36-1.102 2.462-2.462 2.462h-4.747c-1.262 0-2.286-1.023-2.286-2.286s-1.023-2.286-2.286-2.286h-1.582c-1.359 0-2.462-1.102-2.462-2.462v-4.22c0-1.359-1.102-2.462-2.462-2.462h-1.582c-1.262 0-2.286-1.023-2.286-2.286s1.023-2.286 2.286-2.286h1.582c1.359 0 2.462-1.102 2.462-2.462v-4.22c0-1.359 1.102-2.462 2.462-2.462h1.582c1.262 0 2.286-1.023 2.286-2.286s1.023-2.286 2.286-2.286h4.747c1.359 0 2.462 1.102 2.462 2.462v8.791c0 1.359 1.102 2.462 2.462 2.462h39.385c1.359 0 2.462-1.102 2.462-2.462v-8.791c0-1.359 1.102-2.462 2.462-2.462h4.747c1.262 0 2.286 1.023 2.286 2.286s1.023 2.286 2.286 2.286h1.583c1.359 0 2.462 1.102 2.462 2.462v4.22c0 1.359 1.102 2.462 2.462 2.462h1.582z"></path>
<path fill="#efede8" style="fill: var(--color2, #efede8)" d="M108.308 30.266v-27.099h10.14c1.541 0 2.934 0.368 4.178 1.103 1.257 0.736 2.251 1.723 2.981 2.962s1.095 2.6 1.095 4.084c0 1.523-0.379 2.903-1.136 4.142-0.744 1.226-1.744 2.207-3.002 2.942-1.257 0.723-2.63 1.084-4.117 1.084h-5.192v10.782h-4.948zM113.256 14.761h4.665c0.703 0 1.345-0.168 1.927-0.503s1.041-0.787 1.379-1.355c0.352-0.568 0.527-1.2 0.527-1.897 0-0.71-0.176-1.349-0.527-1.916-0.338-0.568-0.798-1.019-1.379-1.355s-1.224-0.503-1.927-0.503h-4.665v7.53z"></path>
<path fill="#efede8" style="fill: var(--color2, #efede8)" d="M137.947 30.769c-1.866 0-3.569-0.458-5.111-1.374-1.528-0.916-2.751-2.142-3.671-3.678-0.906-1.549-1.359-3.258-1.359-5.13 0-1.419 0.264-2.742 0.791-3.968 0.527-1.239 1.25-2.323 2.17-3.252 0.933-0.942 2.015-1.678 3.245-2.207s2.542-0.794 3.934-0.794c1.866 0 3.563 0.458 5.090 1.374 1.541 0.916 2.765 2.149 3.671 3.697 0.919 1.549 1.379 3.265 1.379 5.149 0 1.407-0.264 2.723-0.791 3.949s-1.257 2.31-2.19 3.252c-0.919 0.929-1.994 1.658-3.225 2.187-1.217 0.529-2.528 0.794-3.935 0.794zM137.947 26.046c0.987 0 1.873-0.252 2.657-0.755s1.399-1.168 1.846-1.994c0.46-0.826 0.689-1.729 0.689-2.71 0-1.007-0.237-1.923-0.71-2.749-0.46-0.839-1.088-1.503-1.886-1.994-0.784-0.503-1.649-0.755-2.596-0.755-0.973 0-1.852 0.252-2.636 0.755s-1.406 1.174-1.866 2.013c-0.46 0.839-0.689 1.749-0.689 2.729 0 1.019 0.237 1.942 0.71 2.768s1.102 1.484 1.886 1.974c0.798 0.478 1.663 0.716 2.596 0.716z"></path>
<path fill="#efede8" style="fill: var(--color2, #efede8)" d="M160.76 30.266h-4.908l-6.774-19.357h4.847l4.401 12.524 4.381-12.524h4.888l4.381 12.524 4.401-12.524h4.847l-6.774 19.357h-4.908l-4.401-12.582-4.381 12.582z"></path>
<path fill="#efede8" style="fill: var(--color2, #efede8)" d="M192.372 30.769c-1.866 0-3.569-0.458-5.111-1.374-1.528-0.916-2.751-2.149-3.671-3.697-0.906-1.549-1.359-3.258-1.359-5.13 0-1.407 0.264-2.723 0.791-3.949 0.527-1.239 1.251-2.323 2.17-3.252 0.933-0.942 2.015-1.678 3.245-2.207s2.542-0.794 3.935-0.794c1.582 0 3.029 0.323 4.34 0.968 1.325 0.632 2.447 1.503 3.367 2.613s1.589 2.374 2.008 3.794c0.419 1.419 0.514 2.904 0.284 4.452h-14.825c0.189 0.723 0.5 1.374 0.933 1.955 0.433 0.568 0.98 1.026 1.643 1.374 0.662 0.335 1.413 0.51 2.251 0.523 0.865 0.013 1.649-0.181 2.352-0.581 0.717-0.413 1.311-0.968 1.785-1.665l5.050 1.123c-0.825 1.716-2.055 3.123-3.691 4.22-1.636 1.084-3.468 1.626-5.496 1.626zM187.383 18.652h9.978c-0.149-0.774-0.466-1.471-0.953-2.091-0.473-0.632-1.061-1.136-1.764-1.51s-1.46-0.561-2.272-0.561-1.562 0.187-2.251 0.561c-0.689 0.361-1.278 0.858-1.764 1.49-0.473 0.619-0.798 1.323-0.974 2.11z"></path>
<path fill="#efede8" style="fill: var(--color2, #efede8)" d="M205.691 30.266l-0.020-19.357h4.948l0.020 1.723c0.689-0.697 1.514-1.245 2.474-1.645 0.96-0.413 1.994-0.619 3.103-0.619 0.744 0 1.487 0.103 2.231 0.31l-1.947 4.762c-0.514-0.194-1.027-0.29-1.541-0.29-0.798 0-1.528 0.187-2.19 0.561-0.649 0.361-1.169 0.858-1.562 1.491-0.379 0.619-0.568 1.31-0.568 2.071v10.995h-4.948z"></path>
<path fill="#efede8" style="fill: var(--color2, #efede8)" d="M220.722 30.266v-27.099h10.14c1.541 0 2.934 0.368 4.178 1.103 1.257 0.736 2.251 1.723 2.981 2.962s1.095 2.6 1.095 4.084c0 1.523-0.379 2.903-1.136 4.142-0.744 1.226-1.744 2.207-3.002 2.942-1.257 0.723-2.63 1.084-4.117 1.084h-5.192v10.782h-4.948zM225.671 14.761h4.665c0.703 0 1.345-0.168 1.927-0.503s1.041-0.787 1.379-1.355c0.351-0.568 0.527-1.2 0.527-1.897 0-0.71-0.176-1.349-0.527-1.916-0.338-0.568-0.798-1.019-1.379-1.355s-1.224-0.503-1.927-0.503h-4.665v7.53z"></path>
<path fill="#efede8" style="fill: var(--color2, #efede8)" d="M241.221 23.104v-12.195h4.95v10.956c0 0.761 0.194 1.458 0.586 2.091 0.394 0.619 0.913 1.116 1.563 1.491 0.662 0.361 1.386 0.542 2.169 0.542 0.812 0 1.543-0.181 2.191-0.542 0.65-0.374 1.169-0.871 1.563-1.491 0.391-0.632 0.588-1.329 0.588-2.091v-10.956h4.948l0.020 19.357h-4.948l-0.020-1.761c-0.704 0.697-1.536 1.252-2.496 1.665-0.96 0.4-1.986 0.6-3.082 0.6-1.474 0-2.818-0.342-4.036-1.026-1.217-0.697-2.19-1.619-2.92-2.768-0.717-1.161-1.075-2.452-1.075-3.871z"></path>
<path fill="#efede8" style="fill: var(--color2, #efede8)" d="M263.978 30.266v-29.035h4.948v29.035h-4.948z"></path>
<path fill="#efede8" style="fill: var(--color2, #efede8)" d="M279.783 30.614c-1.056-0.064-2.075-0.265-3.062-0.6-0.975-0.348-1.839-0.819-2.597-1.413-0.756-0.594-1.339-1.303-1.743-2.129l4.177-1.703c0.162 0.258 0.426 0.535 0.79 0.832 0.364 0.284 0.798 0.523 1.297 0.716 0.514 0.194 1.076 0.29 1.684 0.29 0.514 0 1.002-0.064 1.46-0.193 0.475-0.142 0.854-0.355 1.137-0.639 0.298-0.284 0.446-0.652 0.446-1.104 0-0.477-0.175-0.845-0.527-1.103-0.337-0.271-0.77-0.471-1.297-0.6-0.514-0.142-1.014-0.271-1.502-0.387-1.285-0.245-2.481-0.626-3.589-1.142-1.095-0.516-1.982-1.181-2.658-1.994-0.662-0.826-0.992-1.82-0.992-2.981 0-1.278 0.35-2.381 1.054-3.31 0.716-0.929 1.642-1.645 2.779-2.149 1.15-0.503 2.385-0.755 3.712-0.755 1.607 0 3.082 0.323 4.421 0.968 1.351 0.632 2.42 1.529 3.202 2.691l-3.914 2.207c-0.19-0.31-0.453-0.594-0.79-0.852-0.337-0.271-0.724-0.49-1.157-0.658-0.431-0.181-0.884-0.284-1.359-0.31-0.608-0.026-1.162 0.026-1.662 0.155-0.502 0.129-0.906 0.348-1.218 0.658-0.295 0.31-0.446 0.723-0.446 1.239 0 0.49 0.204 0.858 0.608 1.103 0.406 0.232 0.894 0.413 1.46 0.542 0.583 0.129 1.137 0.271 1.664 0.426 1.189 0.374 2.306 0.832 3.348 1.374 1.054 0.542 1.898 1.207 2.533 1.994 0.638 0.787 0.94 1.729 0.913 2.826 0 1.252-0.391 2.349-1.177 3.291-0.783 0.929-1.797 1.639-3.042 2.129-1.228 0.49-2.548 0.684-3.953 0.581z"></path>
<path fill="#efede8" style="fill: var(--color2, #efede8)" d="M300.034 30.769c-1.866 0-3.569-0.458-5.113-1.374-1.526-0.916-2.75-2.149-3.67-3.697-0.906-1.549-1.359-3.258-1.359-5.13 0-1.407 0.263-2.723 0.79-3.949 0.529-1.239 1.25-2.323 2.171-3.252 0.933-0.942 2.014-1.678 3.244-2.207s2.543-0.794 3.936-0.794c1.58 0 3.028 0.323 4.34 0.968 1.324 0.632 2.447 1.503 3.365 2.613 0.921 1.11 1.59 2.374 2.009 3.794s0.514 2.904 0.283 4.452h-14.823c0.19 0.723 0.5 1.374 0.933 1.955 0.431 0.568 0.98 1.026 1.642 1.374 0.662 0.335 1.413 0.51 2.252 0.523 0.864 0.013 1.649-0.181 2.351-0.581 0.716-0.413 1.312-0.968 1.785-1.665l5.051 1.123c-0.825 1.716-2.055 3.123-3.692 4.22-1.634 1.084-3.468 1.626-5.494 1.626zM295.045 18.652h9.977c-0.148-0.774-0.465-1.471-0.953-2.091-0.473-0.632-1.061-1.136-1.765-1.51-0.702-0.374-1.46-0.561-2.27-0.561-0.812 0-1.563 0.187-2.252 0.561-0.689 0.361-1.278 0.858-1.765 1.49-0.473 0.619-0.798 1.323-0.972 2.11z"></path>
</symbol>
<symbol id="slogan-line" viewBox="0 0 87 32">
<path fill="none" stroke="#ef8964" style="stroke: var(--color1, #ef8964)" stroke-linejoin="round" stroke-linecap="round" stroke-miterlimit="4" stroke-width="0.9275" d="M61.051 0.464c-20.416 0.3-65 3.913-60.233 22.304 4.284 12.985 65.327 10.195 80.388 0.425s-5.623-19.937-34.455-16.338"></path>
</symbol>
<symbol id="logo-icon" viewBox="0 0 83 32">
<path d="M80.941 13.714c1.040 0 1.882 0.843 1.882 1.882v0.807c0 1.040-0.843 1.882-1.882 1.882h-2.151c-1.039 0-1.882 0.843-1.882 1.882v5.378c0 1.040-0.843 1.882-1.882 1.882h-2.151c-1.040 0-1.882 0.843-1.882 1.882v0.807c0 1.040-0.843 1.882-1.882 1.882h-5.109c-1.040 0-1.882-0.843-1.882-1.882v-9.95c0-1.040-0.843-1.882-1.882-1.882h-37.647c-1.040 0-1.882 0.843-1.882 1.882v9.95c0 1.040-0.843 1.882-1.882 1.882h-5.109c-1.040 0-1.882-0.843-1.882-1.882v-0.807c0-1.040-0.843-1.882-1.882-1.882h-2.151c-1.040 0-1.882-0.843-1.882-1.882v-5.378c0-1.040-0.843-1.882-1.882-1.882h-2.151c-1.040 0-1.882-0.843-1.882-1.882v-0.807c0-1.040 0.843-1.882 1.882-1.882h2.151c1.040 0 1.882-0.843 1.882-1.882v-5.378c0-1.040 0.843-1.882 1.882-1.882h2.151c1.040 0 1.882-0.843 1.882-1.882v-0.807c0-1.040 0.843-1.882 1.882-1.882h5.109c1.040 0 1.882 0.843 1.882 1.882v9.95c0 1.040 0.843 1.882 1.882 1.882h37.647c1.040 0 1.882-0.843 1.882-1.882v-9.95c0-1.040 0.843-1.882 1.882-1.882h5.109c1.040 0 1.882 0.843 1.882 1.882v0.807c0 1.040 0.843 1.882 1.882 1.882h2.151c1.040 0 1.882 0.843 1.882 1.882v5.378c0 1.040 0.843 1.882 1.882 1.882h2.151z"></path>
</symbol>
<symbol id="logo-text" viewBox="0 0 188 32">
<path fill="#efede8" style="fill: var(--color2, #efede8)" d="M0 29.873v-26.353h9.412c1.431 0 2.723 0.358 3.878 1.073 1.167 0.715 2.089 1.675 2.767 2.88s1.016 2.529 1.016 3.972c0 1.481-0.351 2.824-1.054 4.028-0.69 1.192-1.619 2.146-2.786 2.861-1.167 0.703-2.441 1.054-3.821 1.054h-4.819v10.485h-4.593zM4.593 14.795h4.329c0.653 0 1.249-0.163 1.788-0.489s0.966-0.765 1.28-1.318c0.326-0.552 0.489-1.167 0.489-1.845 0-0.69-0.163-1.311-0.489-1.864-0.314-0.552-0.74-0.991-1.28-1.318s-1.136-0.489-1.788-0.489h-4.329v7.322z"></path>
<path fill="#efede8" style="fill: var(--color2, #efede8)" d="M27.51 30.362c-1.732 0-3.313-0.446-4.744-1.336-1.418-0.891-2.554-2.083-3.407-3.576-0.841-1.506-1.261-3.169-1.261-4.988 0-1.38 0.245-2.667 0.734-3.859 0.489-1.205 1.161-2.259 2.014-3.162 0.866-0.916 1.87-1.631 3.012-2.146s2.359-0.772 3.652-0.772c1.732 0 3.307 0.445 4.725 1.336 1.431 0.891 2.566 2.089 3.407 3.595 0.853 1.506 1.28 3.175 1.28 5.007 0 1.368-0.245 2.648-0.734 3.84s-1.167 2.246-2.033 3.162c-0.853 0.904-1.851 1.613-2.993 2.127-1.129 0.514-2.347 0.772-3.652 0.772zM27.51 25.769c0.916 0 1.738-0.245 2.466-0.734s1.299-1.136 1.713-1.939c0.427-0.803 0.64-1.681 0.64-2.635 0-0.979-0.219-1.87-0.659-2.673-0.427-0.816-1.010-1.462-1.751-1.939-0.728-0.489-1.531-0.734-2.409-0.734-0.904 0-1.719 0.245-2.447 0.734s-1.305 1.142-1.732 1.958c-0.427 0.816-0.64 1.7-0.64 2.654 0 0.991 0.22 1.889 0.659 2.692s1.023 1.443 1.751 1.92c0.741 0.464 1.544 0.696 2.409 0.696z"></path>
<path fill="#efede8" style="fill: var(--color2, #efede8)" d="M48.683 29.873h-4.555l-6.287-18.824h4.499l4.085 12.179 4.066-12.179h4.536l4.066 12.179 4.085-12.179h4.499l-6.287 18.824h-4.555l-4.085-12.235-4.066 12.235z"></path>
<path fill="#efede8" style="fill: var(--color2, #efede8)" d="M78.025 30.362c-1.732 0-3.313-0.446-4.744-1.336-1.418-0.891-2.554-2.089-3.407-3.595-0.841-1.506-1.261-3.169-1.261-4.988 0-1.368 0.245-2.648 0.734-3.84 0.489-1.205 1.161-2.259 2.014-3.162 0.866-0.916 1.87-1.631 3.012-2.146s2.359-0.772 3.652-0.772c1.468 0 2.811 0.314 4.028 0.941 1.23 0.615 2.271 1.462 3.125 2.541s1.474 2.309 1.864 3.689c0.389 1.38 0.477 2.824 0.264 4.329h-13.76c0.176 0.703 0.464 1.336 0.866 1.901 0.401 0.552 0.91 0.998 1.525 1.336 0.615 0.326 1.311 0.496 2.089 0.508 0.803 0.013 1.531-0.176 2.184-0.565 0.665-0.401 1.217-0.941 1.656-1.619l4.687 1.092c-0.766 1.669-1.908 3.037-3.426 4.104-1.519 1.054-3.219 1.581-5.101 1.581zM73.394 18.579h9.261c-0.138-0.753-0.433-1.431-0.885-2.033-0.439-0.615-0.985-1.104-1.638-1.468s-1.355-0.546-2.108-0.546-1.449 0.182-2.089 0.546c-0.64 0.351-1.186 0.835-1.638 1.449-0.439 0.602-0.741 1.286-0.904 2.052z"></path>
<path fill="#efede8" style="fill: var(--color2, #efede8)" d="M90.386 29.873l-0.019-18.824h4.593l0.019 1.675c0.64-0.678 1.406-1.211 2.296-1.6 0.891-0.402 1.851-0.602 2.88-0.602 0.69 0 1.38 0.1 2.071 0.301l-1.807 4.631c-0.477-0.188-0.954-0.282-1.431-0.282-0.74 0-1.418 0.182-2.033 0.546-0.602 0.351-1.086 0.834-1.449 1.449-0.351 0.602-0.527 1.274-0.527 2.014v10.692h-4.593z"></path>
<path fill="#efede8" style="fill: var(--color2, #efede8)" d="M104.338 29.873v-26.353h9.412c1.431 0 2.723 0.358 3.878 1.073 1.167 0.715 2.089 1.675 2.767 2.88s1.016 2.529 1.016 3.972c0 1.481-0.351 2.824-1.054 4.028-0.69 1.192-1.619 2.146-2.786 2.861-1.167 0.703-2.441 1.054-3.821 1.054h-4.819v10.485h-4.593zM108.931 14.795h4.329c0.653 0 1.249-0.163 1.788-0.489s0.966-0.765 1.28-1.318c0.326-0.552 0.489-1.167 0.489-1.845 0-0.69-0.163-1.311-0.489-1.864-0.314-0.552-0.74-0.991-1.28-1.318s-1.136-0.489-1.788-0.489h-4.329v7.322z"></path>
<path fill="#efede8" style="fill: var(--color2, #efede8)" d="M123.365 22.908v-11.859h4.593v10.654c0 0.74 0.182 1.418 0.546 2.033 0.364 0.602 0.847 1.086 1.449 1.449 0.615 0.351 1.286 0.527 2.014 0.527 0.753 0 1.431-0.176 2.033-0.527 0.602-0.364 1.086-0.847 1.449-1.449 0.364-0.615 0.546-1.293 0.546-2.033v-10.654h4.593l0.019 18.824h-4.593l-0.019-1.713c-0.653 0.678-1.424 1.217-2.315 1.619-0.891 0.389-1.845 0.584-2.861 0.584-1.368 0-2.616-0.333-3.746-0.998-1.129-0.678-2.033-1.575-2.711-2.692-0.665-1.129-0.998-2.384-0.998-3.765z"></path>
<path fill="#efede8" style="fill: var(--color2, #efede8)" d="M144.485 29.873v-28.235h4.593v28.235h-4.593z"></path>
<path fill="#efede8" style="fill: var(--color2, #efede8)" d="M159.156 30.212c-0.979-0.063-1.926-0.257-2.842-0.584-0.904-0.339-1.707-0.797-2.409-1.374s-1.242-1.267-1.619-2.071l3.878-1.656c0.151 0.251 0.395 0.521 0.734 0.809 0.339 0.276 0.74 0.508 1.205 0.696 0.477 0.188 0.998 0.282 1.562 0.282 0.477 0 0.929-0.063 1.355-0.188 0.439-0.138 0.791-0.345 1.054-0.621 0.276-0.276 0.414-0.634 0.414-1.073 0-0.464-0.163-0.822-0.489-1.073-0.314-0.264-0.715-0.458-1.205-0.584-0.477-0.138-0.941-0.264-1.393-0.376-1.192-0.238-2.303-0.609-3.332-1.111-1.016-0.502-1.839-1.148-2.466-1.939-0.615-0.803-0.922-1.769-0.922-2.899 0-1.242 0.326-2.315 0.979-3.219 0.665-0.904 1.525-1.6 2.579-2.089 1.067-0.489 2.215-0.734 3.445-0.734 1.493 0 2.861 0.314 4.104 0.941 1.255 0.615 2.246 1.487 2.974 2.616l-3.633 2.146c-0.176-0.301-0.421-0.577-0.734-0.828-0.314-0.264-0.671-0.477-1.073-0.64-0.402-0.176-0.822-0.276-1.261-0.301-0.565-0.025-1.079 0.025-1.544 0.151s-0.841 0.339-1.129 0.64c-0.276 0.301-0.414 0.703-0.414 1.205 0 0.477 0.188 0.834 0.565 1.073 0.376 0.226 0.828 0.402 1.355 0.527 0.539 0.125 1.054 0.264 1.544 0.414 1.104 0.364 2.139 0.809 3.106 1.336 0.979 0.527 1.763 1.173 2.353 1.939s0.872 1.681 0.847 2.748c0 1.217-0.364 2.284-1.092 3.2-0.728 0.904-1.669 1.594-2.824 2.071-1.142 0.477-2.366 0.665-3.671 0.565z"></path>
<path fill="#efede8" style="fill: var(--color2, #efede8)" d="M177.951 30.362c-1.732 0-3.313-0.446-4.744-1.336-1.418-0.891-2.554-2.089-3.407-3.595-0.841-1.506-1.261-3.169-1.261-4.988 0-1.368 0.245-2.648 0.734-3.84 0.489-1.205 1.161-2.259 2.014-3.162 0.866-0.916 1.87-1.631 3.012-2.146s2.359-0.772 3.652-0.772c1.468 0 2.811 0.314 4.028 0.941 1.23 0.615 2.271 1.462 3.125 2.541s1.475 2.309 1.864 3.689c0.389 1.38 0.477 2.824 0.264 4.329h-13.76c0.176 0.703 0.464 1.336 0.866 1.901 0.402 0.552 0.91 0.998 1.525 1.336 0.615 0.326 1.311 0.496 2.089 0.508 0.803 0.013 1.531-0.176 2.184-0.565 0.665-0.401 1.217-0.941 1.656-1.619l4.687 1.092c-0.766 1.669-1.907 3.037-3.426 4.104-1.518 1.054-3.219 1.581-5.101 1.581zM173.321 18.579h9.261c-0.138-0.753-0.433-1.431-0.885-2.033-0.439-0.615-0.985-1.104-1.638-1.468s-1.355-0.546-2.108-0.546-1.449 0.182-2.089 0.546c-0.64 0.351-1.186 0.835-1.638 1.449-0.439 0.602-0.74 1.286-0.904 2.052z"></path>
</symbol>
</defs>
</svg>
